# xmcd CD database file
#
# Track frame offsets:
#	150
#	14467
#	27383
#	40702
#	52996
#	67200
#	81880
#	97382
#	111172
#	124485
#	138269
#	151886
#	166227
#	181961
#	195329
#	210421
#	223984
#	238355
#	252235
#	267675
#
# Disc length: 3749 seconds
#
# Revision: 3
# Processed by: cddbd v1.5.2PL0 Copyright (c) Steve Scherf et al.
# Submitted via: CDex 1.70beta2
#
DISCID=2e0ea314
DTITLE=Louis Armstrong - His Life Vol. 2 - CD 1
DYEAR=1900
DGENRE=Jazz
TTITLE0=Big Butter And Egg Man
TTITLE1=Sunset Cafe Stomp
TTITLE2=You Made me Love You
TTITLE3=Irish Black Bottom
TTITLE4=Willie The Weeper
TTITLE5=Wild Man Blues
TTITLE6=Chicago Breakdown
TTITLE7=Alligator Crawl
TTITLE8=Potato Head Blues
TTITLE9=Melancholy Blues
TTITLE10=Weary Blues
TTITLE11=Twelfth Street Rag
TTITLE12=Keyhole Blues
TTITLE13=S.o.l. Blues
TTITLE14=Gully Low Blues
TTITLE15=That´s When I´ll Come Back to You
TTITLE16=Put ´em Down Blues
TTITLE17=Ory´s Creole Trombone
TTITLE18=The Last Time
TTITLE19=Struttin´ With Some Barbecue
EXTD=
EXTT0=
EXTT1=
EXTT2=
EXTT3=
EXTT4=
EXTT5=
EXTT6=
EXTT7=
EXTT8=
EXTT9=
EXTT10=
EXTT11=
EXTT12=
EXTT13=
EXTT14=
EXTT15=
EXTT16=
EXTT17=
EXTT18=
EXTT19=
PLAYORDER=
